PathFileType	4	(X/Y/Z)	/Users/visionmauri/Downloads/Videos/OAW06-top_Sports2D/OAW06-top_Sports2D_m_person00.trc
DataRate	CameraRate	NumFrames	NumMarkers	Units	OrigDataRate	OrigDataStartFrame	OrigNumFrames
30.0	30.0	8	22	m	30.0	571	1524
Frame#	Time	Hip			RHip			RKnee			RAnkle			RBigToe			RSmallToe			RHeel			LHip			LKnee			LAnkle			LBigToe			LSmallToe			LHeel			Neck			Head			Nose			RShoulder			RElbow			RWrist			LShoulder			LElbow			LWrist			
		X1	Y1	Z1	X2	Y2	Z2	X3	Y3	Z3	X4	Y4	Z4	X5	Y5	Z5	X6	Y6	Z6	X7	Y7	Z7	X8	Y8	Z8	X9	Y9	Z9	X10	Y10	Z10	X11	Y11	Z11	X12	Y12	Z12	X13	Y13	Z13	X14	Y14	Z14	X15	Y15	Z15	X16	Y16	Z16	X17	Y17	Z17	X18	Y18	Z18	X19	Y19	Z19	X20	Y20	Z20	X21	Y21	Z21	X22	Y22	Z22
703	23.44435559736595	4.682124106597708	0.2956986732655074	0.0301	4.689616327623871	0.25184411876616825	0.0301	4.503905953788515	0.19152523083364786	0.129	4.327480192245822	0.133428173593284	0.023	4.297262139101743	0.1426282746653173	0.2179	4.304709555352313	0.09769523638180265	0.1804	4.289972209444125	0.12417647439321221	-0.0119	4.6574516281908895	0.33600915355142535	0.0301	4.479376696027885	0.27534577078908656	0.129	4.323325654258783	0.20545083356781432	0.023	4.27649505008589	0.18048147454914013	0.2179	4.26013003568167	0.20963209666283303	0.1804	4.289905855099545	0.1840214027443283	-0.0119	4.923621081753061	0.3714627110876497	0.0008	5.031051888438697	0.40842315866319984	0.0655	4.954895041348901	0.38160913527393914	0.1076	4.927837958853231	0.28195930921394396	-0.01275	4.799550358110966	0.22259904755382376	0.0702	4.694461970311114	0.16897581395988268	0.1076	4.873032292176743	0.4409330578965714	-0.01275	4.735502323102631	0.42374629575681544	0.0702	4.619963313006846	0.3991019602141319	0.1076
704	23.477704609595488	4.6841374145541375	0.29488173828109204	0.0301	4.692791870356451	0.25086417460358906	0.0301	4.5066332548875785	0.1910371234595962	0.129	4.329671740726236	0.13268279049944065	0.023	4.29790992059743	0.14258046157114404	0.2179	4.305009323641137	0.09694426200019031	0.1804	4.293106627860627	0.12280489041538657	-0.0119	4.65898844774791	0.3346718394265345	0.0301	4.483673955322939	0.27347774226308014	0.129	4.324667484479106	0.20158953122183665	0.023	4.2856319634896805	0.1807478082661605	0.2179	4.268522614311189	0.20876525651910352	0.1804	4.294501585191815	0.18159543786933857	-0.0119	4.925697907268653	0.3705699252106178	0.0008	5.033437678511712	0.4082718013335007	0.0655	4.957316510213102	0.380977703818934	0.1076	4.930985971004512	0.2820932532589317	-0.01275	4.804195820470394	0.22256011479825985	0.0702	4.7011003953324915	0.1697015053205407	0.1076	4.875860248554373	0.43935531843272857	-0.01275	4.737961666955821	0.4227438878316409	0.0702	4.623595575530318	0.39835919971283973	0.1076
705	23.511053621825027	4.68534520813966	0.29413958369291104	0.0301	4.694206155482407	0.24992422379903015	0.0301	4.507843465981228	0.1906739433733071	0.129	4.330807829326226	0.1321327571196903	0.023	4.299607717295145	0.1424726859422758	0.2179	4.305601055418155	0.09682827181183852	0.1804	4.294804405602603	0.12265069050175326	-0.0119	4.660272687654379	0.3337712275316645	0.0301	4.485837263272538	0.2712069570414831	0.129	4.324911375885871	0.19804275934540158	0.023	4.2944506804103995	0.1800991059727957	0.2179	4.276073761817772	0.20578178753429707	0.1804	4.295425124251127	0.17899387378107504	-0.0119	4.929628707601852	0.370933123940611	0.0008	5.036803732737391	0.40888773924291927	0.0655	4.961832572222075	0.3809948594080548	0.1076	4.933552735108623	0.28261877548650133	-0.01275	4.8085836462934575	0.2223025917714462	0.0702	4.708348123350755	0.17149927057773667	0.1076	4.877963457110787	0.4383791390236296	-0.01275	4.7403353488702225	0.4220767239921127	0.0702	4.626569904764539	0.398098777411528	0.1076
706	23.544402634054567	4.687297338872175	0.294019501013439	0.0301	4.695871027766189	0.2497237251410644	0.0301	4.508838320296838	0.19111066468131788	0.129	4.331499308248324	0.1324134700928847	0.023	4.302799219590659	0.14174638163194264	0.2179	4.3068986076308615	0.09759481237530714	0.1804	4.295528234747589	0.12383570663845753	-0.0119	4.662659207109333	0.33394644794406764	0.0301	4.4875009503905074	0.268866058890227	0.129	4.324955909334178	0.19540998569063703	0.023	4.304396393772018	0.18101656428587018	0.2179	4.284047993059225	0.20363779835894888	0.1804	4.293983334568315	0.17656297936909227	-0.0119	4.933938912029833	0.3721363350063824	0.0008	5.040297274214706	0.4103317841962596	0.0655	4.966533722903181	0.38263679884461743	0.1076	4.935590520476684	0.2831226311640102	-0.01275	4.812651859141786	0.22180517345087503	0.0702	4.716192214997724	0.17383060139777576	0.1076	4.879428135622214	0.43802527519350115	-0.01275	4.742668833028754	0.42155656456663987	0.0702	4.62853340702915	0.3984779073254543	0.1076
707	23.577751646284106	4.690340933789572	0.29456117056716036	0.0301	4.698913717299945	0.2507190069275418	0.0301	4.510126253799446	0.19197279456105137	0.129	4.331827800472663	0.1328603299622265	0.023	4.3058372840656185	0.14023019409634918	0.2179	4.308099663859723	0.09842010262861044	0.1804	4.295365878142654	0.1251012634715044	-0.0119	4.6660832833303685	0.3351610729324407	0.0301	4.489934853018779	0.2661264288969107	0.129	4.3263543050064275	0.1935426409071224	0.023	4.314381172568832	0.18289467212266133	0.2179	4.291768648821977	0.2033059279209053	0.1804	4.294039194484164	0.1751042450430877	-0.0119	4.935964321661858	0.37245388943263164	0.0008	5.04231079589229	0.41096992016670253	0.0655	4.968527669056114	0.38396687093233767	0.1076	4.93666129946054	0.2833993020241567	-0.01275	4.815859334474636	0.22159182685220075	0.0702	4.723494436694842	0.17612481930389462	0.1076	4.880361931735785	0.43806684532742424	-0.01275	4.744400761797097	0.4207531543914856	0.0702	4.629319801918317	0.3988492229904761	0.1076
708	23.611100658513642	4.692557288906338	0.29503940005361823	0.0301	4.700920340627696	0.25230153754945167	0.0301	4.511325594880156	0.1926180218986733	0.129	4.331696616009101	0.13287349802619536	0.023	4.306927418731731	0.13874231569051984	0.2179	4.308230418307768	0.09895103169414678	0.1804	4.2946153763573935	0.125401217299365	-0.0119	4.668210981926199	0.3363671667109339	0.0301	4.493194561267881	0.2627048687311218	0.129	4.331182790489058	0.1924553971050045	0.023	4.323106775591759	0.18390353856326963	0.2179	4.298653312707807	0.2030513736355186	0.1804	4.298696209615319	0.17476832079685964	-0.0119	4.9355672984480785	0.37184188289742803	0.0008	5.042681214733012	0.41073807365153525	0.0655	4.968151148869203	0.38394052592686734	0.1076	4.936918852161019	0.2833619101600564	-0.01275	4.817870962823169	0.22192497266296554	0.0702	4.728474274881786	0.17807182391175255	0.1076	4.880592112008308	0.4384249762248004	-0.01275	4.744995423573918	0.41974419327545526	0.0702	4.629396657681806	0.3988362587088386	0.1076
709	23.64444967074318	4.692896562154006	0.2951747357172147	0.0301	4.7003561786736165	0.25359701096598825	0.0301	4.512382049535955	0.1931013667058096	0.129	4.331658506288752	0.1327372898054929	0.023	4.306512163658744	0.1379885570550425	0.2179	4.307324632062215	0.09959892105902321	0.1804	4.294366117226962	0.12504578699727883	-0.0119	4.668156880804347	0.3369658676236107	0.0301	4.497209143418738	0.2594698221894843	0.129	4.339841646139148	0.1922530978047822	0.023	4.33087699588733	0.18344673651876622	0.2179	4.305256703820662	0.20107313546889688	0.1804	4.307967395664177	0.17470214953206298	-0.0119	4.934627258451971	0.37160455102421364	0.0008	5.042325502166296	0.41061875312955276	0.0655	4.967513139453999	0.383525354200837	0.1076	4.937296948770204	0.2831481063697883	-0.01275	4.819051116037924	0.22248669830413886	0.0702	4.73092635663831	0.17979664416839727	0.1076	4.880531448869621	0.43885504694644345	-0.01275	4.745027394587357	0.4190486405140408	0.0702	4.629703586988786	0.39882908290911384	0.1076
710	23.67779868297272	4.693429599926123	0.2956567714331435	0.0301	4.7002111069523425	0.25466386904948013	0.0301	4.513825018581516	0.19381383389482146	0.129	4.332580568268259	0.13303337259671236	0.023	4.306322555355904	0.13782169774421354	0.2179	4.306408331223033	0.10088047448496174	0.1804	4.295249540703401	0.12505712748092307	-0.0119	4.669016569428265	0.33769737164387836	0.0301	4.502002327564038	0.2575749238122346	0.129	4.349688168607342	0.1918774596753493	0.023	4.338214224709467	0.18192197125175538	0.2179	4.311708779773639	0.19701274820940093	0.1804	4.318276103084652	0.173571313502977	-0.0119	4.934363944503254	0.37199001584135166	0.0008	5.0413423379307005	0.41034470462539574	0.0655	4.967255844021996	0.38344131487571964	0.1076	4.9376827037623965	0.2833235579557513	-0.01275	4.81971702902489	0.22308838183040794	0.0702	4.732667179884952	0.18186237380260284	0.1076	4.880561564612317	0.4390070917738626	-0.01275	4.745500756416709	0.4189137201395343	0.0702	4.630694081320711	0.3990382991482461	0.1076
